# xmcd
#
# Track frame offsets:
#	150
#	14230
#	27362
#	36812
#	55712
#	65687
#	85322
#	100855
#
# Disc length: 1465 seconds
# Revision: 0
# Processed by: cddbd v1.5.2PL0 Copyright (c) Steve Scherf et al.
# Submitted via: dBpowerAMP V12.0
#
DISCID=6705b708
DTITLE=Los Mejores Bailes de Salón - Bailes de Sallon
DYEAR=1900
DGENRE=
TTITLE0=Rico Vacilón
TTITLE1=No me quieras tanto
TTITLE2=Para Vigo me voy
TTITLE3=¡Ay! Qué dolor
TTITLE4=Hasta luego cocodrilo
TTITLE5=Danubio azul
TTITLE6=Volver
TTITLE7=España cañi
EXTD=
EXTT0=
EXTT1=
EXTT2=
EXTT3=
EXTT4=
EXTT5=
EXTT6=
EXTT7=
PLAYORDER=
